# 3ds Max Wavefront OBJ Exporter v0.99 - (c)2007 guruware
# File Created: 03.11.2024 19:29:05

mtllib Heart_Shape.mtl

#
# object Heart_Shape
#

v  11.1428 17.6681 2.0468
v  9.9023 19.8341 1.9692
v  8.5187 18.6918 2.5047
v  9.4160 17.0061 2.6114
v  11.9773 18.0136 1.1897
v  10.5042 20.3835 1.1378
v  11.4443 14.8720 2.1057
v  12.3727 14.8963 1.2169
v  9.6354 14.9407 2.6796
v  8.2317 21.2328 1.8023
v  7.3768 19.9444 2.3013
v  8.5680 21.8524 1.0338
v  6.5020 21.7250 1.4332
v  6.3995 20.7226 2.0525
v  6.5626 22.3496 0.8276
v  4.8478 21.6215 1.5885
v  5.3164 20.2563 2.2427
v  4.6762 22.2658 0.9158
v  3.2200 21.0127 1.7395
v  3.9765 19.5534 2.4398
v  2.8847 21.6487 0.9989
v  4.7766 18.1364 2.9591
v  6.1682 19.0466 2.7422
v  1.8429 20.0644 1.6460
v  2.6390 18.6706 2.3457
v  1.4415 20.6069 0.9467
v  3.2760 17.2534 3.0838
v  3.9365 15.6696 3.5494
v  5.6071 16.6820 3.3299
v  7.1063 17.7203 2.9817
v  0.8568 19.0552 1.4297
v  1.3340 17.9189 2.2578
v  0.5401 19.5107 0.8155
v  1.6781 16.5788 3.0931
v  2.0460 14.9415 3.6235
v  2.4408 13.0878 3.8708
v  4.6226 13.9567 3.7073
v  6.4108 15.1513 3.4196
v  1.0342 14.7548 3.6506
v  1.2349 12.8647 3.9338
v  0.8481 16.3498 3.0112
v  2.9359 11.0350 3.8156
v  5.4516 12.1959 3.5889
v  1.4908 10.7369 3.9017
v  7.9000 16.2873 3.0726
v  8.3802 15.0223 3.0624
v  7.3033 13.7203 3.2887
v  6.6089 10.4482 3.1519
v  8.6606 12.6615 2.9018
v  3.6309 8.7368 3.4091
v  1.8556 8.2858 3.5314
v  8.2395 8.6407 2.3963
v  10.5018 11.7357 2.2488
v  9.1243 7.8661 1.3934
v  11.4492 11.3758 1.3007
v  4.7092 6.0320 2.6377
v  5.4574 4.7914 1.5490
v  0.4411 18.6748 1.3024
v  0.6773 17.6134 2.1579
v  0.2728 19.1137 0.7356
v  1.9069 5.0576 2.7982
v  1.9164 2.9810 1.6543
v  -11.1428 17.6681 2.0468
v  -9.4160 17.0061 2.6114
v  -8.5187 18.6918 2.5047
v  -9.9023 19.8341 1.9692
v  -10.5042 20.3835 1.1378
v  -11.9773 18.0136 1.1897
v  -12.3727 14.8963 1.2169
v  -11.4443 14.8720 2.1057
v  -9.6354 14.9407 2.6796
v  -7.3768 19.9444 2.3013
v  -8.2317 21.2328 1.8023
v  -8.5680 21.8524 1.0338
v  -6.3995 20.7226 2.0525
v  -6.5020 21.7250 1.4332
v  -6.5626 22.3496 0.8276
v  -5.3164 20.2563 2.2427
v  -4.8478 21.6215 1.5885
v  -4.6762 22.2658 0.9158
v  -3.9765 19.5534 2.4398
v  -3.2200 21.0127 1.7395
v  -2.8847 21.6487 0.9989
v  -6.1682 19.0466 2.7422
v  -4.7766 18.1364 2.9591
v  -2.6390 18.6706 2.3457
v  -1.8429 20.0644 1.6460
v  -1.4415 20.6069 0.9467
v  -3.2760 17.2534 3.0838
v  -5.6071 16.6820 3.3299
v  -3.9365 15.6696 3.5494
v  -7.1063 17.7203 2.9817
v  -1.3340 17.9189 2.2578
v  -0.8568 19.0552 1.4297
v  -0.5401 19.5107 0.8155
v  -1.6781 16.5788 3.0931
v  -2.0460 14.9415 3.6235
v  -4.6226 13.9567 3.7073
v  -2.4408 13.0878 3.8708
v  -6.4108 15.1513 3.4196
v  -1.2349 12.8647 3.9338
v  -1.0342 14.7548 3.6506
v  -0.8481 16.3498 3.0112
v  -5.4516 12.1959 3.5889
v  -2.9359 11.0350 3.8156
v  -1.4908 10.7369 3.9017
v  -7.9000 16.2873 3.0726
v  -8.3802 15.0223 3.0624
v  -7.3033 13.7203 3.2887
v  -8.6606 12.6615 2.9018
v  -6.6089 10.4482 3.1519
v  -3.6308 8.7368 3.4091
v  -1.8556 8.2858 3.5314
v  -8.2395 8.6407 2.3963
v  -10.5018 11.7357 2.2488
v  -11.4491 11.3758 1.3007
v  -9.1243 7.8661 1.3934
v  -5.4574 4.7914 1.5490
v  -4.7092 6.0320 2.6377
v  -0.6773 17.6134 2.1579
v  -0.4411 18.6748 1.3024
v  -0.2728 19.1137 0.7356
v  -1.9069 5.0576 2.7982
v  -1.9164 2.9810 1.6543
v  12.3434 18.1988 -0.0000
v  10.7118 20.5997 -0.0000
v  12.8071 14.9751 -0.0000
v  8.6392 22.0320 -0.0000
v  6.5814 22.6069 -0.0000
v  4.6193 22.4803 -0.0000
v  2.7649 21.8675 -0.0000
v  1.3201 20.7875 -0.0000
v  0.4803 19.6799 -0.0000
v  9.6995 7.4537 -0.0000
v  11.9617 11.2608 -0.0000
v  6.0543 3.9830 -0.0000
v  0.2349 19.1736 -0.0000
v  0.0000 2.2844 1.6992
v  0.0000 0.0763 -0.0000
v  1.5957 1.1040 -0.0000
v  -10.7118 20.5997 -0.0000
v  -12.3434 18.1988 -0.0000
v  -12.8071 14.9751 -0.0000
v  -8.6392 22.0320 -0.0000
v  -6.5813 22.6069 -0.0000
v  -4.6193 22.4803 -0.0000
v  -2.7649 21.8675 -0.0000
v  -1.3201 20.7875 -0.0000
v  -0.4803 19.6799 -0.0000
v  -11.9616 11.2608 -0.0000
v  -9.6995 7.4537 -0.0000
v  -6.0543 3.9830 -0.0000
v  0.0000 18.9271 0.6905
v  0.0000 18.9243 -0.0000
v  -0.2349 19.1736 -0.0000
v  -1.5957 1.1040 -0.0000
v  11.1428 17.6681 -2.0468
v  9.4160 17.0061 -2.6114
v  8.5187 18.6918 -2.5047
v  9.9023 19.8341 -1.9692
v  10.5042 20.3835 -1.1378
v  11.9773 18.0136 -1.1897
v  12.3727 14.8963 -1.2169
v  11.4443 14.8720 -2.1057
v  9.6354 14.9407 -2.6796
v  7.3768 19.9444 -2.3013
v  8.2317 21.2328 -1.8023
v  8.5680 21.8524 -1.0338
v  6.3995 20.7226 -2.0525
v  6.5020 21.7250 -1.4332
v  6.5626 22.3496 -0.8276
v  5.3164 20.2563 -2.2427
v  4.8478 21.6215 -1.5885
v  4.6762 22.2658 -0.9158
v  3.9765 19.5534 -2.4398
v  3.2200 21.0127 -1.7395
v  2.8847 21.6487 -0.9989
v  6.1682 19.0466 -2.7422
v  4.7766 18.1364 -2.9591
v  2.6390 18.6706 -2.3457
v  1.8429 20.0644 -1.6460
v  1.4415 20.6069 -0.9467
v  3.2760 17.2534 -3.0838
v  5.6071 16.6820 -3.3299
v  3.9365 15.6696 -3.5494
v  7.1063 17.7203 -2.9817
v  1.3340 17.9189 -2.2578
v  0.8568 19.0552 -1.4297
v  0.5401 19.5107 -0.8155
v  1.6781 16.5788 -3.0931
v  2.0460 14.9415 -3.6236
v  4.6226 13.9567 -3.7074
v  2.4408 13.0878 -3.8708
v  6.4108 15.1513 -3.4196
v  1.2349 12.8647 -3.9338
v  1.0342 14.7548 -3.6506
v  0.8481 16.3498 -3.0112
v  5.4516 12.1959 -3.5889
v  2.9359 11.0350 -3.8156
v  1.4908 10.7369 -3.9017
v  7.9000 16.2873 -3.0726
v  8.3802 15.0223 -3.0624
v  7.3033 13.7203 -3.2887
v  8.6606 12.6615 -2.9018
v  6.6089 10.4482 -3.1519
v  3.6309 8.7368 -3.4091
v  1.8556 8.2858 -3.5314
v  8.2395 8.6407 -2.3963
v  10.5018 11.7357 -2.2488
v  11.4492 11.3758 -1.3007
v  9.1243 7.8661 -1.3934
v  5.4574 4.7914 -1.5490
v  4.7092 6.0320 -2.6377
v  0.6773 17.6134 -2.1579
v  0.4411 18.6748 -1.3024
v  0.2728 19.1137 -0.7356
v  1.9069 5.0576 -2.7982
v  1.9164 2.9810 -1.6543
v  -11.1428 17.6681 -2.0468
v  -9.9023 19.8341 -1.9692
v  -8.5187 18.6918 -2.5047
v  -9.4160 17.0061 -2.6114
v  -11.9773 18.0136 -1.1897
v  -10.5042 20.3835 -1.1378
v  -11.4443 14.8720 -2.1057
v  -12.3727 14.8963 -1.2169
v  -9.6354 14.9407 -2.6796
v  -8.2317 21.2328 -1.8023
v  -7.3768 19.9444 -2.3013
v  -8.5680 21.8524 -1.0338
v  -6.5020 21.7250 -1.4332
v  -6.3995 20.7226 -2.0525
v  -6.5626 22.3496 -0.8276
v  -4.8478 21.6215 -1.5885
v  -5.3164 20.2563 -2.2427
v  -4.6762 22.2658 -0.9158
v  -3.2200 21.0127 -1.7395
v  -3.9765 19.5534 -2.4398
v  -2.8847 21.6487 -0.9989
v  -4.7766 18.1364 -2.9591
v  -6.1682 19.0466 -2.7422
v  -1.8429 20.0644 -1.6460
v  -2.6390 18.6706 -2.3457
v  -1.4415 20.6069 -0.9467
v  -3.2760 17.2534 -3.0838
v  -3.9365 15.6696 -3.5494
v  -5.6071 16.6820 -3.3299
v  -7.1063 17.7203 -2.9817
v  -0.8568 19.0552 -1.4297
v  -1.3340 17.9189 -2.2578
v  -0.5401 19.5107 -0.8155
v  -1.6781 16.5788 -3.0931
v  -2.0460 14.9415 -3.6236
v  -2.4408 13.0878 -3.8708
v  -4.6226 13.9567 -3.7074
v  -6.4108 15.1513 -3.4196
v  -1.0342 14.7548 -3.6506
v  -1.2349 12.8647 -3.9338
v  -0.8481 16.3498 -3.0112
v  -2.9359 11.0350 -3.8156
v  -5.4516 12.1959 -3.5889
v  -1.4908 10.7369 -3.9017
v  -7.9000 16.2873 -3.0726
v  -8.3802 15.0223 -3.0624
v  -7.3033 13.7203 -3.2887
v  -6.6089 10.4482 -3.1519
v  -8.6606 12.6615 -2.9018
v  -3.6308 8.7368 -3.4091
v  -1.8556 8.2858 -3.5314
v  -8.2395 8.6407 -2.3963
v  -10.5018 11.7357 -2.2488
v  -9.1243 7.8661 -1.3934
v  -11.4491 11.3758 -1.3007
v  -4.7092 6.0320 -2.6377
v  -5.4574 4.7914 -1.5490
v  -0.4411 18.6748 -1.3024
v  -0.6773 17.6134 -2.1579
v  -0.2728 19.1137 -0.7356
v  -1.9069 5.0576 -2.7982
v  -1.9164 2.9810 -1.6543
v  0.0000 2.2844 -1.6992
v  0.0000 18.9271 -0.6905
v  0.0000 14.7338 3.6584
v  0.0000 12.8430 3.9528
v  0.0000 16.2880 2.9523
v  0.0000 10.7114 3.9263
v  0.0000 8.2406 3.5764
v  0.0000 18.5162 1.2363
v  0.0000 17.5033 2.1000
v  0.0000 4.8040 2.8711
v  0.0000 12.8430 -3.9528
v  0.0000 14.7338 -3.6584
v  0.0000 16.2880 -2.9523
v  0.0000 10.7114 -3.9263
v  0.0000 8.2406 -3.5764
v  0.0000 17.5033 -2.1000
v  0.0000 18.5162 -1.2363
v  0.0000 4.8040 -2.8711
# 298 vertices

vn 0.4936 0.1801 0.8509
vn 0.3826 0.3755 0.8442
vn 0.1768 0.2256 0.9580
vn 0.2522 0.1226 0.9599
vn 0.7996 0.2893 0.5263
vn 0.6386 0.5993 0.4827
vn 0.5318 -0.0263 0.8465
vn 0.8476 -0.0506 0.5282
vn 0.2986 0.0143 0.9543
vn 0.1675 0.5460 0.8208
vn 0.0968 0.3146 0.9443
vn 0.3643 0.8230 0.4359
vn 0.0236 0.6250 0.7802
vn 0.0453 0.4615 0.8860
vn 0.0730 0.8590 0.5067
vn -0.0527 0.5881 0.8071
vn -0.0409 0.3915 0.9193
vn -0.1449 0.8674 0.4760
vn -0.2532 0.5130 0.8202
vn -0.1493 0.3158 0.9370
vn -0.4007 0.7800 0.4806
vn -0.0519 0.2679 0.9621
vn 0.0338 0.3012 0.9530
vn -0.4374 0.3948 0.8080
vn -0.2658 0.3288 0.9062
vn -0.6240 0.6264 0.4673
vn -0.1205 0.3214 0.9392
vn -0.0057 0.1799 0.9837
vn 0.0595 0.1823 0.9814
vn 0.1378 0.2022 0.9696
vn -0.5725 0.3971 0.7173
vn -0.3254 0.4505 0.8314
vn -0.7569 0.4990 0.4221
vn -0.1728 0.3752 0.9107
vn -0.0270 0.2102 0.9773
vn 0.0464 0.0587 0.9972
vn 0.0896 0.0476 0.9948
vn 0.1446 0.0674 0.9872
vn -0.0095 0.2551 0.9669
vn 0.0268 0.0655 0.9975
vn -0.1512 0.4434 0.8835
vn 0.0992 -0.0780 0.9920
vn 0.1611 -0.0668 0.9847
vn 0.0460 -0.0800 0.9957
vn 0.1926 0.1179 0.9742
vn 0.2453 0.0243 0.9692
vn 0.2011 -0.0242 0.9793
vn 0.2175 -0.1532 0.9640
vn 0.2656 -0.0764 0.9611
vn 0.1458 -0.1764 0.9735
vn 0.0724 -0.1824 0.9805
vn 0.3797 -0.3246 0.8663
vn 0.4816 -0.2050 0.8521
vn 0.6008 -0.5178 0.6090
vn 0.7645 -0.3322 0.5524
vn 0.2515 -0.3794 0.8904
vn 0.4220 -0.6044 0.6757
vn -0.4876 0.5443 0.6827
vn -0.2628 0.5409 0.7990
vn -0.7114 0.6064 0.3553
vn 0.1311 -0.3583 0.9244
vn 0.2727 -0.5715 0.7740
vn -0.4936 0.1801 0.8509
vn -0.2522 0.1226 0.9599
vn -0.1768 0.2256 0.9580
vn -0.3826 0.3755 0.8442
vn -0.6386 0.5993 0.4827
vn -0.7996 0.2893 0.5263
vn -0.8476 -0.0506 0.5282
vn -0.5318 -0.0263 0.8465
vn -0.2986 0.0143 0.9543
vn -0.0968 0.3146 0.9443
vn -0.1675 0.5460 0.8208
vn -0.3643 0.8230 0.4359
vn -0.0453 0.4615 0.8860
vn -0.0236 0.6250 0.7802
vn -0.0730 0.8590 0.5067
vn 0.0409 0.3915 0.9193
vn 0.0527 0.5881 0.8071
vn 0.1449 0.8674 0.4760
vn 0.1493 0.3158 0.9370
vn 0.2532 0.5130 0.8202
vn 0.4007 0.7800 0.4806
vn -0.0338 0.3012 0.9530
vn 0.0519 0.2679 0.9621
vn 0.2658 0.3288 0.9062
vn 0.4374 0.3948 0.8080
vn 0.6240 0.6264 0.4673
vn 0.1205 0.3214 0.9392
vn -0.0595 0.1823 0.9814
vn 0.0057 0.1799 0.9837
vn -0.1378 0.2022 0.9696
vn 0.3254 0.4505 0.8314
vn 0.5725 0.3971 0.7173
vn 0.7569 0.4990 0.4221
vn 0.1728 0.3752 0.9107
vn 0.0270 0.2102 0.9773
vn -0.0896 0.0476 0.9948
vn -0.0464 0.0587 0.9972
vn -0.1446 0.0674 0.9872
vn -0.0268 0.0655 0.9975
vn 0.0095 0.2551 0.9669
vn 0.1512 0.4434 0.8835
vn -0.1611 -0.0668 0.9847
vn -0.0992 -0.0780 0.9920
vn -0.0460 -0.0800 0.9957
vn -0.1926 0.1179 0.9742
vn -0.2453 0.0243 0.9692
vn -0.2011 -0.0242 0.9793
vn -0.2656 -0.0764 0.9611
vn -0.2175 -0.1532 0.9640
vn -0.1458 -0.1764 0.9735
vn -0.0724 -0.1824 0.9805
vn -0.3797 -0.3246 0.8663
vn -0.4816 -0.2050 0.8521
vn -0.7645 -0.3322 0.5524
vn -0.6008 -0.5178 0.6090
vn -0.4220 -0.6044 0.6757
vn -0.2515 -0.3794 0.8904
vn 0.2628 0.5409 0.7990
vn 0.4876 0.5443 0.6827
vn 0.7114 0.6064 0.3553
vn -0.1311 -0.3583 0.9244
vn -0.2727 -0.5715 0.7740
vn 0.9308 0.3655 -0.0000
vn 0.7094 0.7048 0.0000
vn 0.9995 -0.0323 -0.0000
vn 0.4236 0.9058 -0.0000
vn 0.1029 0.9947 -0.0000
vn -0.1918 0.9814 -0.0000
vn -0.4627 0.8865 -0.0000
vn -0.7021 0.7121 -0.0000
vn -0.8481 0.5299 -0.0000
vn 0.7831 -0.6219 -0.0000
vn 0.9307 -0.3657 0.0000
vn 0.6180 -0.7862 0.0000
vn -0.8254 0.5645 -0.0000
vn -0.0000 -0.5355 0.8445
vn 0.0000 -1.0000 0.0000
vn 0.5418 -0.8405 -0.0000
vn -0.7094 0.7048 -0.0000
vn -0.9308 0.3655 -0.0000
vn -0.9995 -0.0323 -0.0000
vn -0.4236 0.9058 -0.0000
vn -0.1029 0.9947 -0.0000
vn 0.1919 0.9814 -0.0000
vn 0.4627 0.8865 -0.0000
vn 0.7021 0.7121 -0.0000
vn 0.8481 0.5299 -0.0000
vn -0.9307 -0.3657 -0.0000
vn -0.7831 -0.6219 0.0000
vn -0.6180 -0.7862 -0.0000
vn 0.0000 0.9453 0.3263
vn 0.0000 1.0000 0.0000
vn 0.8254 0.5645 0.0000
vn -0.5418 -0.8405 -0.0000
vn 0.4936 0.1801 -0.8509
vn 0.2522 0.1226 -0.9599
vn 0.1768 0.2256 -0.9580
vn 0.3826 0.3755 -0.8442
vn 0.6386 0.5993 -0.4827
vn 0.7996 0.2893 -0.5263
vn 0.8476 -0.0506 -0.5282
vn 0.5318 -0.0263 -0.8465
vn 0.2986 0.0143 -0.9543
vn 0.0968 0.3146 -0.9443
vn 0.1675 0.5460 -0.8208
vn 0.3643 0.8230 -0.4359
vn 0.0453 0.4615 -0.8860
vn 0.0236 0.6250 -0.7802
vn 0.0730 0.8590 -0.5067
vn -0.0409 0.3915 -0.9193
vn -0.0527 0.5881 -0.8071
vn -0.1449 0.8674 -0.4760
vn -0.1493 0.3158 -0.9370
vn -0.2532 0.5130 -0.8202
vn -0.4007 0.7800 -0.4806
vn 0.0338 0.3012 -0.9530
vn -0.0519 0.2679 -0.9621
vn -0.2658 0.3288 -0.9062
vn -0.4374 0.3948 -0.8080
vn -0.6240 0.6264 -0.4673
vn -0.1205 0.3214 -0.9392
vn 0.0595 0.1823 -0.9814
vn -0.0057 0.1799 -0.9837
vn 0.1378 0.2022 -0.9696
vn -0.3254 0.4505 -0.8314
vn -0.5725 0.3971 -0.7173
vn -0.7569 0.4990 -0.4221
vn -0.1728 0.3752 -0.9107
vn -0.0270 0.2102 -0.9773
vn 0.0896 0.0476 -0.9948
vn 0.0464 0.0587 -0.9972
vn 0.1446 0.0674 -0.9872
vn 0.0268 0.0655 -0.9975
vn -0.0095 0.2551 -0.9669
vn -0.1512 0.4434 -0.8835
vn 0.1611 -0.0668 -0.9847
vn 0.0992 -0.0780 -0.9920
vn 0.0460 -0.0800 -0.9957
vn 0.1926 0.1179 -0.9742
vn 0.2453 0.0243 -0.9692
vn 0.2011 -0.0242 -0.9793
vn 0.2656 -0.0764 -0.9611
vn 0.2175 -0.1532 -0.9640
vn 0.1458 -0.1764 -0.9735
vn 0.0724 -0.1824 -0.9805
vn 0.3797 -0.3246 -0.8663
vn 0.4816 -0.2050 -0.8521
vn 0.7645 -0.3322 -0.5524
vn 0.6008 -0.5178 -0.6090
vn 0.4220 -0.6044 -0.6757
vn 0.2515 -0.3794 -0.8904
vn -0.2628 0.5409 -0.7990
vn -0.4876 0.5443 -0.6827
vn -0.7114 0.6064 -0.3553
vn 0.1311 -0.3583 -0.9244
vn 0.2727 -0.5715 -0.7740
vn -0.4936 0.1801 -0.8509
vn -0.3826 0.3755 -0.8442
vn -0.1768 0.2256 -0.9580
vn -0.2522 0.1226 -0.9599
vn -0.7996 0.2893 -0.5263
vn -0.6386 0.5993 -0.4827
vn -0.5318 -0.0263 -0.8465
vn -0.8476 -0.0506 -0.5282
vn -0.2986 0.0143 -0.9543
vn -0.1675 0.5460 -0.8208
vn -0.0968 0.3146 -0.9443
vn -0.3643 0.8230 -0.4359
vn -0.0236 0.6250 -0.7802
vn -0.0453 0.4615 -0.8860
vn -0.0730 0.8590 -0.5067
vn 0.0527 0.5881 -0.8071
vn 0.0409 0.3915 -0.9193
vn 0.1449 0.8674 -0.4760
vn 0.2532 0.5130 -0.8202
vn 0.1493 0.3158 -0.9370
vn 0.4007 0.7800 -0.4806
vn 0.0519 0.2679 -0.9621
vn -0.0338 0.3012 -0.9530
vn 0.4374 0.3948 -0.8080
vn 0.2658 0.3288 -0.9062
vn 0.6240 0.6264 -0.4673
vn 0.1205 0.3214 -0.9392
vn 0.0057 0.1799 -0.9837
vn -0.0595 0.1823 -0.9814
vn -0.1378 0.2022 -0.9696
vn 0.5725 0.3971 -0.7173
vn 0.3254 0.4505 -0.8314
vn 0.7569 0.4990 -0.4221
vn 0.1728 0.3752 -0.9107
vn 0.0270 0.2102 -0.9773
vn -0.0464 0.0587 -0.9972
vn -0.0896 0.0476 -0.9948
vn -0.1446 0.0674 -0.9872
vn 0.0095 0.2551 -0.9669
vn -0.0268 0.0655 -0.9975
vn 0.1512 0.4434 -0.8835
vn -0.0992 -0.0780 -0.9920
vn -0.1611 -0.0668 -0.9847
vn -0.0460 -0.0800 -0.9957
vn -0.1926 0.1179 -0.9742
vn -0.2453 0.0243 -0.9692
vn -0.2011 -0.0242 -0.9793
vn -0.2175 -0.1532 -0.9640
vn -0.2656 -0.0764 -0.9611
vn -0.1458 -0.1764 -0.9735
vn -0.0724 -0.1824 -0.9805
vn -0.3797 -0.3246 -0.8663
vn -0.4816 -0.2050 -0.8521
vn -0.6008 -0.5178 -0.6090
vn -0.7645 -0.3322 -0.5524
vn -0.2515 -0.3794 -0.8904
vn -0.4220 -0.6044 -0.6757
vn 0.4876 0.5443 -0.6827
vn 0.2628 0.5409 -0.7990
vn 0.7114 0.6064 -0.3553
vn -0.1311 -0.3583 -0.9244
vn -0.2727 -0.5715 -0.7740
vn -0.0000 -0.5355 -0.8445
vn 0.0000 0.9453 -0.3263
vn 0.0000 0.2846 0.9587
vn 0.0000 0.0700 0.9975
vn 0.0000 0.4945 0.8692
vn 0.0000 -0.0771 0.9970
vn -0.0000 -0.1711 0.9853
vn 0.0000 0.7219 0.6920
vn 0.0000 0.6104 0.7921
vn -0.0000 -0.3214 0.9469
vn 0.0000 0.0700 -0.9975
vn 0.0000 0.2846 -0.9587
vn 0.0000 0.4945 -0.8692
vn 0.0000 -0.0771 -0.9970
vn -0.0000 -0.1711 -0.9853
vn 0.0000 0.6104 -0.7921
vn -0.0000 0.7219 -0.6920
vn -0.0000 -0.3214 -0.9469
# 298 vertex normals

vt 0.9029 0.6307 0.0000
vt 0.8652 0.7079 0.0000
vt 0.8122 0.6705 0.0000
vt 0.8390 0.6102 0.0000
vt 0.9439 0.6451 0.0000
vt 0.8967 0.7334 0.0000
vt 0.9092 0.5338 0.0000
vt 0.9543 0.5329 0.0000
vt 0.8431 0.5387 0.0000
vt 0.8127 0.7614 0.0000
vt 0.7772 0.7180 0.0000
vt 0.8318 0.7918 0.0000
vt 0.7565 0.7914 0.0000
vt 0.7472 0.7503 0.0000
vt 0.7631 0.8215 0.0000
vt 0.6981 0.7906 0.0000
vt 0.7074 0.7367 0.0000
vt 0.6949 0.8233 0.0000
vt 0.6395 0.7745 0.0000
vt 0.6573 0.7160 0.0000
vt 0.6294 0.8087 0.0000
vt 0.6786 0.6612 0.0000
vt 0.7310 0.6885 0.0000
vt 0.5856 0.7516 0.0000
vt 0.6041 0.6937 0.0000
vt 0.5730 0.7826 0.0000
vt 0.6218 0.6359 0.0000
vt 0.6410 0.5762 0.0000
vt 0.7029 0.6067 0.0000
vt 0.7587 0.6393 0.0000
vt 0.5394 0.7287 0.0000
vt 0.5518 0.6763 0.0000
vt 0.5304 0.7563 0.0000
vt 0.5619 0.6182 0.0000
vt 0.5726 0.5554 0.0000
vt 0.5850 0.4880 0.0000
vt 0.6626 0.5143 0.0000
vt 0.7275 0.5519 0.0000
vt 0.5366 0.5504 0.0000
vt 0.5429 0.4814 0.0000
vt 0.5310 0.6135 0.0000
vt 0.6016 0.4146 0.0000
vt 0.6901 0.4514 0.0000
vt 0.5514 0.4055 0.0000
vt 0.7828 0.5880 0.0000
vt 0.7974 0.5436 0.0000
vt 0.7573 0.5007 0.0000
vt 0.7310 0.3881 0.0000
vt 0.8053 0.4617 0.0000
vt 0.6259 0.3321 0.0000
vt 0.5641 0.3180 0.0000
vt 0.7903 0.3208 0.0000
vt 0.8721 0.4263 0.0000
vt 0.8307 0.2845 0.0000
vt 0.9172 0.4077 0.0000
vt 0.6643 0.2337 0.0000
vt 0.6969 0.1790 0.0000
vt 0.5183 0.7220 0.0000
vt 0.5255 0.6702 0.0000
vt 0.5134 0.7493 0.0000
vt 0.5660 0.2020 0.0000
vt 0.5688 0.1186 0.0000
vt 0.0969 0.6309 0.0000
vt 0.1609 0.6104 0.0000
vt 0.1878 0.6706 0.0000
vt 0.1348 0.7080 0.0000
vt 0.1034 0.7336 0.0000
vt 0.0558 0.6453 0.0000
vt 0.0457 0.5329 0.0000
vt 0.0907 0.5339 0.0000
vt 0.1568 0.5388 0.0000
vt 0.2229 0.7179 0.0000
vt 0.1876 0.7613 0.0000
vt 0.1685 0.7916 0.0000
vt 0.2529 0.7504 0.0000
vt 0.2436 0.7915 0.0000
vt 0.2368 0.8216 0.0000
vt 0.2927 0.7368 0.0000
vt 0.3019 0.7907 0.0000
vt 0.3051 0.8236 0.0000
vt 0.3427 0.7160 0.0000
vt 0.3605 0.7744 0.0000
vt 0.3707 0.8085 0.0000
vt 0.2690 0.6885 0.0000
vt 0.3215 0.6612 0.0000
vt 0.3959 0.6937 0.0000
vt 0.4145 0.7516 0.0000
vt 0.4271 0.7826 0.0000
vt 0.3783 0.6359 0.0000
vt 0.2971 0.6068 0.0000
vt 0.3590 0.5762 0.0000
vt 0.2413 0.6393 0.0000
vt 0.4483 0.6763 0.0000
vt 0.4606 0.7287 0.0000
vt 0.4696 0.7564 0.0000
vt 0.4381 0.6182 0.0000
vt 0.4274 0.5555 0.0000
vt 0.3374 0.5144 0.0000
vt 0.4150 0.4880 0.0000
vt 0.2725 0.5520 0.0000
vt 0.4571 0.4814 0.0000
vt 0.4634 0.5504 0.0000
vt 0.4690 0.6135 0.0000
vt 0.3099 0.4515 0.0000
vt 0.3983 0.4147 0.0000
vt 0.4485 0.4055 0.0000
vt 0.2172 0.5881 0.0000
vt 0.2025 0.5437 0.0000
vt 0.2427 0.5008 0.0000
vt 0.1947 0.4618 0.0000
vt 0.2690 0.3882 0.0000
vt 0.3740 0.3321 0.0000
vt 0.4359 0.3180 0.0000
vt 0.2098 0.3210 0.0000
vt 0.1278 0.4264 0.0000
vt 0.0828 0.4077 0.0000
vt 0.1693 0.2848 0.0000
vt 0.3029 0.1790 0.0000
vt 0.3355 0.2336 0.0000
vt 0.4745 0.6702 0.0000
vt 0.4818 0.7220 0.0000
vt 0.4866 0.7493 0.0000
vt 0.4339 0.2020 0.0000
vt 0.4312 0.1186 0.0000
vt 0.9854 0.6606 0.0000
vt 0.9279 0.7605 0.0000
vt 1.0000 0.5333 0.0000
vt 0.8493 0.8239 0.0000
vt 0.7690 0.8510 0.0000
vt 0.6925 0.8569 0.0000
vt 0.6187 0.8425 0.0000
vt 0.5580 0.8133 0.0000
vt 0.5204 0.7840 0.0000
vt 0.8736 0.2498 0.0000
vt 0.9637 0.3908 0.0000
vt 0.7343 0.1252 0.0000
vt 0.5083 0.7731 0.0000
vt 0.5000 0.0971 0.0000
vt 0.4999 -0.0000 0.0000
vt 0.5632 0.0294 0.0000
vt 0.0715 0.7598 0.0000
vt 0.0149 0.6600 0.0000
vt 0.0000 0.5333 0.0000
vt 0.1497 0.8242 0.0000
vt 0.2309 0.8511 0.0000
vt 0.3073 0.8565 0.0000
vt 0.3813 0.8430 0.0000
vt 0.4420 0.8134 0.0000
vt 0.4797 0.7840 0.0000
vt 0.0363 0.3908 0.0000
vt 0.1264 0.2493 0.0000
vt 0.2659 0.1255 0.0000
vt 0.5000 0.7472 0.0000
vt 0.5000 0.7727 0.0000
vt 0.4918 0.7731 0.0000
vt 0.4366 0.0295 0.0000
vt 0.0969 0.6313 0.0000
vt 0.1609 0.6108 0.0000
vt 0.1877 0.6711 0.0000
vt 0.1347 0.7085 0.0000
vt 0.1032 0.7340 0.0000
vt 0.0560 0.6457 0.0000
vt 0.0455 0.5335 0.0000
vt 0.0906 0.5344 0.0000
vt 0.1567 0.5393 0.0000
vt 0.2228 0.7185 0.0000
vt 0.1873 0.7619 0.0000
vt 0.1682 0.7923 0.0000
vt 0.2528 0.7508 0.0000
vt 0.2435 0.7919 0.0000
vt 0.2370 0.8220 0.0000
vt 0.2926 0.7372 0.0000
vt 0.3019 0.7910 0.0000
vt 0.3051 0.8238 0.0000
vt 0.3427 0.7164 0.0000
vt 0.3605 0.7749 0.0000
vt 0.3707 0.8090 0.0000
vt 0.2689 0.6890 0.0000
vt 0.3214 0.6616 0.0000
vt 0.3958 0.6940 0.0000
vt 0.4144 0.7519 0.0000
vt 0.4271 0.7829 0.0000
vt 0.3781 0.6363 0.0000
vt 0.2970 0.6072 0.0000
vt 0.3589 0.5766 0.0000
vt 0.2412 0.6398 0.0000
vt 0.4482 0.6766 0.0000
vt 0.4606 0.7290 0.0000
vt 0.4696 0.7566 0.0000
vt 0.4380 0.6186 0.0000
vt 0.4272 0.5558 0.0000
vt 0.3372 0.5147 0.0000
vt 0.4148 0.4883 0.0000
vt 0.2723 0.5523 0.0000
vt 0.4569 0.4817 0.0000
vt 0.4632 0.5507 0.0000
vt 0.4689 0.6138 0.0000
vt 0.3096 0.4519 0.0000
vt 0.3981 0.4150 0.0000
vt 0.4482 0.4058 0.0000
vt 0.2171 0.5885 0.0000
vt 0.2024 0.5442 0.0000
vt 0.2425 0.5012 0.0000
vt 0.1945 0.4622 0.0000
vt 0.2687 0.3886 0.0000
vt 0.3737 0.3325 0.0000
vt 0.4355 0.3183 0.0000
vt 0.2093 0.3213 0.0000
vt 0.1276 0.4269 0.0000
vt 0.0825 0.4083 0.0000
vt 0.1688 0.2850 0.0000
vt 0.3026 0.1795 0.0000
vt 0.3352 0.2340 0.0000
vt 0.4744 0.6705 0.0000
vt 0.4817 0.7222 0.0000
vt 0.4866 0.7496 0.0000
vt 0.4335 0.2023 0.0000
vt 0.4306 0.1189 0.0000
vt 0.9030 0.6308 0.0000
vt 0.8121 0.6705 0.0000
vt 0.8390 0.6103 0.0000
vt 0.9441 0.6452 0.0000
vt 0.8966 0.7335 0.0000
vt 0.9091 0.5338 0.0000
vt 0.9541 0.5328 0.0000
vt 0.8430 0.5388 0.0000
vt 0.8125 0.7613 0.0000
vt 0.7771 0.7180 0.0000
vt 0.8316 0.7915 0.0000
vt 0.7565 0.7915 0.0000
vt 0.7471 0.7504 0.0000
vt 0.7632 0.8217 0.0000
vt 0.6981 0.7908 0.0000
vt 0.7073 0.7369 0.0000
vt 0.6949 0.8237 0.0000
vt 0.6395 0.7746 0.0000
vt 0.6572 0.7161 0.0000
vt 0.6785 0.6613 0.0000
vt 0.7309 0.6886 0.0000
vt 0.5855 0.7518 0.0000
vt 0.6041 0.6939 0.0000
vt 0.5730 0.7828 0.0000
vt 0.6216 0.6361 0.0000
vt 0.6408 0.5763 0.0000
vt 0.7028 0.6069 0.0000
vt 0.7586 0.6394 0.0000
vt 0.5394 0.7290 0.0000
vt 0.5517 0.6765 0.0000
vt 0.5304 0.7566 0.0000
vt 0.5618 0.6185 0.0000
vt 0.5725 0.5556 0.0000
vt 0.5848 0.4882 0.0000
vt 0.6624 0.5145 0.0000
vt 0.7274 0.5520 0.0000
vt 0.5364 0.5506 0.0000
vt 0.5427 0.4816 0.0000
vt 0.5308 0.6137 0.0000
vt 0.6014 0.4148 0.0000
vt 0.6899 0.4516 0.0000
vt 0.5512 0.4057 0.0000
vt 0.7827 0.5881 0.0000
vt 0.7973 0.5437 0.0000
vt 0.7571 0.5009 0.0000
vt 0.7307 0.3883 0.0000
vt 0.8051 0.4618 0.0000
vt 0.6256 0.3323 0.0000
vt 0.5638 0.3182 0.0000
vt 0.7899 0.3210 0.0000
vt 0.8719 0.4263 0.0000
vt 0.8303 0.2848 0.0000
vt 0.9169 0.4076 0.0000
vt 0.6640 0.2337 0.0000
vt 0.6966 0.1791 0.0000
vt 0.5182 0.7222 0.0000
vt 0.5254 0.6705 0.0000
vt 0.5134 0.7495 0.0000
vt 0.5656 0.2022 0.0000
vt 0.5683 0.1188 0.0000
vt 0.0721 0.7611 0.0000
vt 0.0145 0.6613 0.0000
vt -0.0002 0.5340 0.0000
vt 0.1507 0.8245 0.0000
vt 0.2311 0.8515 0.0000
vt 0.3076 0.8573 0.0000
vt 0.3814 0.8428 0.0000
vt 0.4421 0.8136 0.0000
vt 0.4797 0.7843 0.0000
vt 0.0360 0.3914 0.0000
vt 0.1260 0.2504 0.0000
vt 0.2651 0.1256 0.0000
vt 0.4918 0.7734 0.0000
vt 0.4995 0.0974 0.0000
vt 0.4361 0.0297 0.0000
vt 0.4994 0.0002 0.0000
vt 0.9850 0.6599 0.0000
vt 0.9286 0.7597 0.0000
vt 0.9998 0.5331 0.0000
vt 0.8503 0.8241 0.0000
vt 0.7692 0.8512 0.0000
vt 0.6928 0.8566 0.0000
vt 0.6188 0.8431 0.0000
vt 0.5580 0.8136 0.0000
vt 0.5204 0.7843 0.0000
vt 0.8732 0.2493 0.0000
vt 0.9634 0.3906 0.0000
vt 0.7335 0.1256 0.0000
vt 0.5000 0.7474 0.0000
vt 0.5082 0.7734 0.0000
vt 0.5000 0.7730 0.0000
vt 0.5628 0.0297 0.0000
vt 0.5000 0.5502 0.0000
vt 0.5000 0.4810 0.0000
vt 0.5000 0.6130 0.0000
vt 0.5000 0.4050 0.0000
vt 0.5000 0.3170 0.0000
vt 0.5000 0.7198 0.0000
vt 0.5000 0.6687 0.0000
vt 0.5000 0.1939 0.0000
vt 0.4998 0.4812 0.0000
vt 0.4998 0.5504 0.0000
vt 0.4999 0.6133 0.0000
vt 0.4997 0.4053 0.0000
vt 0.4997 0.3172 0.0000
vt 0.4999 0.6689 0.0000
vt 0.5000 0.7201 0.0000
vt 0.4996 0.1942 0.0000
# 326 texture coords

o Heart_Shape
g Heart_Shape
usemtl Heart_Shape_shader
s 1
f 1/1/1 2/2/2 3/3/3 4/4/4 
f 1/1/1 5/5/5 6/6/6 2/2/2 
f 1/1/1 7/7/7 8/8/8 5/5/5 
f 1/1/1 4/4/4 9/9/9 7/7/7 
f 2/2/2 10/10/10 11/11/11 3/3/3 
f 2/2/2 6/6/6 12/12/12 10/10/10 
f 10/10/10 13/13/13 14/14/14 11/11/11 
f 10/10/10 12/12/12 15/15/15 13/13/13 
f 13/13/13 16/16/16 17/17/17 14/14/14 
f 13/13/13 15/15/15 18/18/18 16/16/16 
f 16/16/16 19/19/19 20/20/20 17/17/17 
f 16/16/16 18/18/18 21/21/21 19/19/19 
f 17/17/17 20/20/20 22/22/22 23/23/23 
f 17/17/17 23/23/23 11/11/11 14/14/14 
f 19/19/19 24/24/24 25/25/25 20/20/20 
f 19/19/19 21/21/21 26/26/26 24/24/24 
f 20/20/20 25/25/25 27/27/27 22/22/22 
f 22/22/22 27/27/27 28/28/28 29/29/29 
f 22/22/22 29/29/29 30/30/30 23/23/23 
f 24/24/24 31/31/31 32/32/32 25/25/25 
f 24/24/24 26/26/26 33/33/33 31/31/31 
f 25/25/25 32/32/32 34/34/34 27/27/27 
f 27/27/27 34/34/34 35/35/35 28/28/28 
f 28/28/28 35/35/35 36/36/36 37/37/37 
f 28/28/28 37/37/37 38/38/38 29/29/29 
f 35/35/35 39/39/39 40/40/40 36/36/36 
f 35/35/35 34/34/34 41/41/41 39/39/39 
f 36/36/36 42/42/42 43/43/43 37/37/37 
f 36/36/36 40/40/40 44/44/44 42/42/42 
f 23/23/23 30/30/30 3/3/3 11/11/11 
f 30/30/30 45/45/45 4/4/4 3/3/3 
f 30/30/30 29/29/29 38/38/38 45/45/45 
f 45/45/45 46/46/46 9/9/9 4/4/4 
f 45/45/45 38/38/38 47/47/47 46/46/46 
f 38/38/38 37/37/37 43/43/43 47/47/47 
f 47/47/47 43/43/43 48/48/48 49/49/49 
f 47/47/47 49/49/49 9/9/9 46/46/46 
f 43/43/43 42/42/42 50/50/50 48/48/48 
f 42/42/42 44/44/44 51/51/51 50/50/50 
f 52/52/52 53/53/53 49/49/49 48/48/48 
f 52/52/52 54/54/54 55/55/55 53/53/53 
f 52/52/52 56/56/56 57/57/57 54/54/54 
f 52/52/52 48/48/48 50/50/50 56/56/56 
f 53/53/53 7/7/7 9/9/9 49/49/49 
f 53/53/53 55/55/55 8/8/8 7/7/7 
f 31/31/31 58/58/58 59/59/59 32/32/32 
f 31/31/31 33/33/33 60/60/60 58/58/58 
f 32/32/32 59/59/59 41/41/41 34/34/34 
f 56/56/56 50/50/50 51/51/51 61/61/61 
f 56/56/56 61/61/61 62/62/62 57/57/57 
f 63/63/63 64/64/64 65/65/65 66/66/66 
f 63/63/63 66/66/66 67/67/67 68/68/68 
f 63/63/63 68/68/68 69/69/69 70/70/70 
f 63/63/63 70/70/70 71/71/71 64/64/64 
f 66/66/66 65/65/65 72/72/72 73/73/73 
f 66/66/66 73/73/73 74/74/74 67/67/67 
f 73/73/73 72/72/72 75/75/75 76/76/76 
f 73/73/73 76/76/76 77/77/77 74/74/74 
f 76/76/76 75/75/75 78/78/78 79/79/79 
f 76/76/76 79/79/79 80/80/80 77/77/77 
f 79/79/79 78/78/78 81/81/81 82/82/82 
f 79/79/79 82/82/82 83/83/83 80/80/80 
f 78/78/78 84/84/84 85/85/85 81/81/81 
f 78/78/78 75/75/75 72/72/72 84/84/84 
f 82/82/82 81/81/81 86/86/86 87/87/87 
f 82/82/82 87/87/87 88/88/88 83/83/83 
f 81/81/81 85/85/85 89/89/89 86/86/86 
f 85/85/85 90/90/90 91/91/91 89/89/89 
f 85/85/85 84/84/84 92/92/92 90/90/90 
f 87/87/87 86/86/86 93/93/93 94/94/94 
f 87/87/87 94/94/94 95/95/95 88/88/88 
f 86/86/86 89/89/89 96/96/96 93/93/93 
f 89/89/89 91/91/91 97/97/97 96/96/96 
f 91/91/91 98/98/98 99/99/99 97/97/97 
f 91/91/91 90/90/90 100/100/100 98/98/98 
f 97/97/97 99/99/99 101/101/101 102/102/102 
f 97/97/97 102/102/102 103/103/103 96/96/96 
f 99/99/99 98/98/98 104/104/104 105/105/105 
f 99/99/99 105/105/105 106/106/106 101/101/101 
f 84/84/84 72/72/72 65/65/65 92/92/92 
f 92/92/92 65/65/65 64/64/64 107/107/107 
f 92/92/92 107/107/107 100/100/100 90/90/90 
f 107/107/107 64/64/64 71/71/71 108/108/108 
f 107/107/107 108/108/108 109/109/109 100/100/100 
f 100/100/100 109/109/109 104/104/104 98/98/98 
f 109/109/109 110/110/110 111/111/111 104/104/104 
f 109/109/109 108/108/108 71/71/71 110/110/110 
f 104/104/104 111/111/111 112/112/112 105/105/105 
f 105/105/105 112/112/112 113/113/113 106/106/106 
f 114/114/114 111/111/111 110/110/110 115/115/115 
f 114/114/114 115/115/115 116/116/116 117/117/117 
f 114/114/114 117/117/117 118/118/118 119/119/119 
f 114/114/114 119/119/119 112/112/112 111/111/111 
f 115/115/115 110/110/110 71/71/71 70/70/70 
f 115/115/115 70/70/70 69/69/69 116/116/116 
f 94/94/94 93/93/93 120/120/120 121/121/121 
f 94/94/94 121/121/121 122/122/122 95/95/95 
f 93/93/93 96/96/96 103/103/103 120/120/120 
f 119/119/119 123/123/123 113/113/113 112/112/112 
f 119/119/119 118/118/118 124/124/124 123/123/123 
f 5/5/5 125/125/125 126/126/126 6/6/6 
f 8/8/8 127/127/127 125/125/125 5/5/5 
f 6/6/6 126/126/126 128/128/128 12/12/12 
f 12/12/12 128/128/128 129/129/129 15/15/15 
f 15/15/15 129/129/129 130/130/130 18/18/18 
f 18/18/18 130/130/130 131/131/131 21/21/21 
f 21/21/21 131/131/131 132/132/132 26/26/26 
f 26/26/26 132/132/132 133/133/133 33/33/33 
f 54/54/54 134/134/134 135/135/135 55/55/55 
f 57/57/57 136/136/136 134/134/134 54/54/54 
f 55/55/55 135/135/135 127/127/127 8/8/8 
f 33/33/33 133/133/133 137/137/137 60/60/60 
f 138/138/138 139/139/139 140/140/140 62/62/62 
f 67/67/67 141/141/141 142/142/142 68/68/68 
f 68/68/68 142/142/142 143/143/143 69/69/69 
f 74/74/74 144/144/144 141/141/141 67/67/67 
f 77/77/77 145/145/145 144/144/144 74/74/74 
f 80/80/80 146/146/146 145/145/145 77/77/77 
f 83/83/83 147/147/147 146/146/146 80/80/80 
f 88/88/88 148/148/148 147/147/147 83/83/83 
f 95/95/95 149/149/149 148/148/148 88/88/88 
f 116/116/116 150/150/150 151/151/151 117/117/117 
f 117/117/117 151/151/151 152/152/152 118/118/118 
f 69/69/69 143/143/143 150/150/150 116/116/116 
f 153/153/153 154/154/154 155/155/155 122/122/122 
f 118/118/118 152/152/152 156/156/156 124/124/124 
f 157/157/157 158/158/158 159/159/159 160/160/160 
f 157/157/157 160/160/160 161/161/161 162/162/162 
f 157/157/157 162/162/162 163/163/163 164/164/164 
f 157/157/157 164/164/164 165/165/165 158/158/158 
f 160/160/160 159/159/159 166/166/166 167/167/167 
f 160/160/160 167/167/167 168/168/168 161/161/161 
f 167/167/167 166/166/166 169/169/169 170/170/170 
f 167/167/167 170/170/170 171/171/171 168/168/168 
f 170/170/170 169/169/169 172/172/172 173/173/173 
f 170/170/170 173/173/173 174/174/174 171/171/171 
f 173/173/173 172/172/172 175/175/175 176/176/176 
f 173/173/173 176/176/176 177/177/177 174/174/174 
f 172/172/172 178/178/178 179/179/179 175/175/175 
f 172/172/172 169/169/169 166/166/166 178/178/178 
f 176/176/176 175/175/175 180/180/180 181/181/181 
f 176/176/176 181/181/181 182/182/182 177/177/177 
f 175/175/175 179/179/179 183/183/183 180/180/180 
f 179/179/179 184/184/184 185/185/185 183/183/183 
f 179/179/179 178/178/178 186/186/186 184/184/184 
f 181/181/181 180/180/180 187/187/187 188/188/188 
f 181/181/181 188/188/188 189/189/189 182/182/182 
f 180/180/180 183/183/183 190/190/190 187/187/187 
f 183/183/183 185/185/185 191/191/191 190/190/190 
f 185/185/185 192/192/192 193/193/193 191/191/191 
f 185/185/185 184/184/184 194/194/194 192/192/192 
f 191/191/191 193/193/193 195/195/195 196/196/196 
f 191/191/191 196/196/196 197/197/197 190/190/190 
f 193/193/193 192/192/192 198/198/198 199/199/199 
f 193/193/193 199/199/199 200/200/200 195/195/195 
f 178/178/178 166/166/166 159/159/159 186/186/186 
f 186/186/186 159/159/159 158/158/158 201/201/201 
f 186/186/186 201/201/201 194/194/194 184/184/184 
f 201/201/201 158/158/158 165/165/165 202/202/202 
f 201/201/201 202/202/202 203/203/203 194/194/194 
f 194/194/194 203/203/203 198/198/198 192/192/192 
f 203/203/203 204/204/204 205/205/205 198/198/198 
f 203/203/203 202/202/202 165/165/165 204/204/204 
f 198/198/198 205/205/205 206/206/206 199/199/199 
f 199/199/199 206/206/206 207/207/207 200/200/200 
f 208/208/208 205/205/205 204/204/204 209/209/209 
f 208/208/208 209/209/209 210/210/210 211/211/211 
f 208/208/208 211/211/211 212/212/212 213/213/213 
f 208/208/208 213/213/213 206/206/206 205/205/205 
f 209/209/209 204/204/204 165/165/165 164/164/164 
f 209/209/209 164/164/164 163/163/163 210/210/210 
f 188/188/188 187/187/187 214/214/214 215/215/215 
f 188/188/188 215/215/215 216/216/216 189/189/189 
f 187/187/187 190/190/190 197/197/197 214/214/214 
f 213/213/213 217/217/217 207/207/207 206/206/206 
f 213/213/213 212/212/212 218/218/218 217/217/217 
f 219/219/219 220/2/220 221/220/221 222/221/222 
f 219/219/219 223/222/223 224/223/224 220/2/220 
f 219/219/219 225/224/225 226/225/226 223/222/223 
f 219/219/219 222/221/222 227/226/227 225/224/225 
f 220/2/220 228/227/228 229/228/229 221/220/221 
f 220/2/220 224/223/224 230/229/230 228/227/228 
f 228/227/228 231/230/231 232/231/232 229/228/229 
f 228/227/228 230/229/230 233/232/233 231/230/231 
f 231/230/231 234/233/234 235/234/235 232/231/232 
f 231/230/231 233/232/233 236/235/236 234/233/234 
f 234/233/234 237/236/237 238/237/238 235/234/235 
f 234/233/234 236/235/236 239/21/239 237/236/237 
f 235/234/235 238/237/238 240/238/240 241/239/241 
f 235/234/235 241/239/241 229/228/229 232/231/232 
f 237/236/237 242/240/242 243/241/243 238/237/238 
f 237/236/237 239/21/239 244/242/244 242/240/242 
f 238/237/238 243/241/243 245/243/245 240/238/240 
f 240/238/240 245/243/245 246/244/246 247/245/247 
f 240/238/240 247/245/247 248/246/248 241/239/241 
f 242/240/242 249/247/249 250/248/250 243/241/243 
f 242/240/242 244/242/244 251/249/251 249/247/249 
f 243/241/243 250/248/250 252/250/252 245/243/245 
f 245/243/245 252/250/252 253/251/253 246/244/246 
f 246/244/246 253/251/253 254/252/254 255/253/255 
f 246/244/246 255/253/255 256/254/256 247/245/247 
f 253/251/253 257/255/257 258/256/258 254/252/254 
f 253/251/253 252/250/252 259/257/259 257/255/257 
f 254/252/254 260/258/260 261/259/261 255/253/255 
f 254/252/254 258/256/258 262/260/262 260/258/260 
f 241/239/241 248/246/248 221/220/221 229/228/229 
f 248/246/248 263/261/263 222/221/222 221/220/221 
f 248/246/248 247/245/247 256/254/256 263/261/263 
f 263/261/263 264/262/264 227/226/227 222/221/222 
f 263/261/263 256/254/256 265/263/265 264/262/264 
f 256/254/256 255/253/255 261/259/261 265/263/265 
f 265/263/265 261/259/261 266/264/266 267/265/267 
f 265/263/265 267/265/267 227/226/227 264/262/264 
f 261/259/261 260/258/260 268/266/268 266/264/266 
f 260/258/260 262/260/262 269/267/269 268/266/268 
f 270/268/270 271/269/271 267/265/267 266/264/266 
f 270/268/270 272/270/272 273/271/273 271/269/271 
f 270/268/270 274/272/274 275/273/275 272/270/272 
f 270/268/270 266/264/266 268/266/268 274/272/274 
f 271/269/271 225/224/225 227/226/227 267/265/267 
f 271/269/271 273/271/273 226/225/226 225/224/225 
f 249/247/249 276/274/276 277/275/277 250/248/250 
f 249/247/249 251/249/251 278/276/278 276/274/276 
f 250/248/250 277/275/277 259/257/259 252/250/252 
f 274/272/274 268/266/268 269/267/269 279/277/279 
f 274/272/274 279/277/279 280/278/280 275/273/275 
f 162/162/162 161/161/161 126/279/126 125/280/125 
f 163/163/163 162/162/162 125/280/125 127/281/127 
f 161/161/161 168/168/168 128/282/128 126/279/126 
f 168/168/168 171/171/171 129/283/129 128/282/128 
f 171/171/171 174/174/174 130/284/130 129/283/129 
f 174/174/174 177/177/177 131/285/131 130/284/130 
f 177/177/177 182/182/182 132/286/132 131/285/131 
f 182/182/182 189/189/189 133/287/133 132/286/132 
f 211/211/211 210/210/210 135/288/135 134/289/134 
f 212/212/212 211/211/211 134/289/134 136/290/136 
f 210/210/210 163/163/163 127/281/127 135/288/135 
f 189/189/189 216/216/216 137/291/137 133/287/133 
f 281/292/281 218/218/218 140/293/140 139/294/139 
f 224/223/224 223/222/223 142/295/142 141/296/141 
f 223/222/223 226/225/226 143/297/143 142/295/142 
f 230/229/230 224/223/224 141/296/141 144/298/144 
f 233/232/233 230/229/230 144/298/144 145/299/145 
f 236/235/236 233/232/233 145/299/145 146/300/146 
f 239/21/239 236/235/236 146/300/146 147/301/147 
f 244/242/244 239/21/239 147/301/147 148/302/148 
f 251/249/251 244/242/244 148/302/148 149/303/149 
f 273/271/273 272/270/272 151/304/151 150/305/150 
f 272/270/272 275/273/275 152/306/152 151/304/151 
f 226/225/226 273/271/273 150/305/150 143/297/143 
f 282/307/282 278/276/278 155/308/155 154/309/154 
f 275/273/275 280/278/280 156/310/156 152/306/152 
f 39/39/39 283/311/283 284/312/284 40/40/40 
f 41/41/41 285/313/285 283/311/283 39/39/39 
f 40/40/40 284/312/284 286/314/286 44/44/44 
f 44/44/44 286/314/286 287/315/287 51/51/51 
f 58/58/58 288/316/288 289/317/289 59/59/59 
f 60/60/60 153/153/153 288/316/288 58/58/58 
f 59/59/59 289/317/289 285/313/285 41/41/41 
f 51/51/51 287/315/287 290/318/290 61/61/61 
f 61/61/61 290/318/290 138/138/138 62/62/62 
f 101/101/101 284/312/284 283/311/283 102/102/102 
f 102/102/102 283/311/283 285/313/285 103/103/103 
f 106/106/106 286/314/286 284/312/284 101/101/101 
f 113/113/113 287/315/287 286/314/286 106/106/106 
f 120/120/120 289/317/289 288/316/288 121/121/121 
f 121/121/121 288/316/288 153/153/153 122/122/122 
f 103/103/103 285/313/285 289/317/289 120/120/120 
f 123/123/123 290/318/290 287/315/287 113/113/113 
f 124/124/124 138/138/138 290/318/290 123/123/123 
f 137/137/137 154/154/154 153/153/153 60/60/60 
f 140/140/140 136/136/136 57/57/57 62/62/62 
f 155/155/155 149/149/149 95/95/95 122/122/122 
f 156/156/156 139/139/139 138/138/138 124/124/124 
f 195/195/195 291/319/291 292/320/292 196/196/196 
f 196/196/196 292/320/292 293/321/293 197/197/197 
f 200/200/200 294/322/294 291/319/291 195/195/195 
f 207/207/207 295/323/295 294/322/294 200/200/200 
f 214/214/214 296/324/296 297/325/297 215/215/215 
f 215/215/215 297/325/297 282/307/282 216/216/216 
f 197/197/197 293/321/293 296/324/296 214/214/214 
f 217/217/217 298/326/298 295/323/295 207/207/207 
f 218/218/218 281/292/281 298/326/298 217/217/217 
f 257/255/257 292/320/292 291/319/291 258/256/258 
f 259/257/259 293/321/293 292/320/292 257/255/257 
f 258/256/258 291/319/291 294/322/294 262/260/262 
f 262/260/262 294/322/294 295/323/295 269/267/269 
f 276/274/276 297/325/297 296/324/296 277/275/277 
f 278/276/278 282/307/282 297/325/297 276/274/276 
f 277/275/277 296/324/296 293/321/293 259/257/259 
f 269/267/269 295/323/295 298/326/298 279/277/279 
f 279/277/279 298/326/298 281/292/281 280/278/280 
f 216/216/216 282/307/282 154/309/154 137/291/137 
f 218/218/218 212/212/212 136/290/136 140/293/140 
f 278/276/278 251/249/251 149/303/149 155/308/155 
f 280/278/280 281/292/281 139/294/139 156/310/156 
# 296 polygons

